<svg xmlns="http://www.w3.org/2000/svg" viewBox="0 0 53.6 84.77"><defs><style>.cls-1{fill:#c27f61;}.cls-2{fill:#ef4136;}.cls-3{fill:#b35f39;}.cls-4{fill:#cbcbcb;}.cls-5{fill:#86472b;}.cls-6{fill:#744630;}</style></defs><g id="Layer_2" data-name="Layer 2"><g id="Layer_1-2" data-name="Layer 1"><path class="cls-1" d="M19.71,58V52.31H9.79a8.5,8.5,0,0,0-8.5,8.5V64.6A8.51,8.51,0,0,0,7.1,72.67L18.3,75h1.41V69.31H18.3l-7.72-1.93A4.77,4.77,0,0,1,11.73,58Z"/><rect class="cls-2" x="25.38" y="5.54" width="14.17" height="7.09"/><rect class="cls-3" x="21.13" y="12.63" width="22.67" height="29.76"/><rect class="cls-4" x="31.05" y="16.88" width="2.83" height="2.83"/><rect class="cls-4" x="31.05" y="22.55" width="2.83" height="2.83"/><rect class="cls-4" x="31.05" y="28.22" width="2.83" height="2.83"/><rect class="cls-4" x="31.05" y="33.88" width="2.83" height="2.83"/><path class="cls-1" d="M43.8,83.48H22.55a4.25,4.25,0,0,1-4.25-4.25v-34H48.06v34a4.25,4.25,0,0,1-4.26,4.25Z"/><path class="cls-5" d="M22.55,46.64,23,45.22l19.31-.1,1.47,1.52L41,52.31H25.38Z"/><path class="cls-3" d="M18.3,66.48H48.06V79.23a4.25,4.25,0,0,1-4.26,4.25H22.55a4.25,4.25,0,0,1-4.25-4.25Z"/><path class="cls-6" d="M32.47,60.81a1.43,1.43,0,0,1-1.42-1.42V58a1.42,1.42,0,0,1,2.84,0v1.41a1.43,1.43,0,0,1-1.42,1.42Z"/><path class="cls-6" d="M38.14,62.23a1.42,1.42,0,0,1-1.42-1.42V59.39a1.42,1.42,0,0,1,2.83,0v1.42a1.42,1.42,0,0,1-1.41,1.42Z"/><path class="cls-6" d="M26.8,62.23a1.43,1.43,0,0,1-1.42-1.42V59.39a1.42,1.42,0,0,1,2.84,0v1.42a1.43,1.43,0,0,1-1.42,1.42Z"/><path class="cls-2" d="M14.05,41H50.89a1.42,1.42,0,0,1,1.42,1.42v2.83a1.43,1.43,0,0,1-1.42,1.42H14.05a1.42,1.42,0,0,1-1.42-1.42V42.39A1.41,1.41,0,0,1,14.05,41Z"/><rect class="cls-2" x="22.55" y="1.29" width="19.84" height="5.67"/><rect x="31.05" y="16.88" width="2.83" height="2.83"/><rect x="31.05" y="22.55" width="2.83" height="2.83"/><rect x="31.05" y="28.22" width="2.83" height="2.83"/><rect x="31.05" y="33.88" width="2.83" height="2.83"/><path d="M32.47,56.56A1.42,1.42,0,0,0,31.05,58v1.41a1.42,1.42,0,0,0,2.84,0V58a1.42,1.42,0,0,0-1.42-1.42Z"/><path d="M38.14,58a1.41,1.41,0,0,0-1.42,1.41v1.42a1.42,1.42,0,1,0,2.83,0V59.39A1.41,1.41,0,0,0,38.14,58Z"/><path d="M26.8,58a1.42,1.42,0,0,0-1.42,1.41v1.42a1.42,1.42,0,1,0,2.84,0V59.39A1.42,1.42,0,0,0,26.8,58Z"/><path d="M49.35,47.93h1.54a2.72,2.72,0,0,0,2.71-2.71V42.39a2.71,2.71,0,0,0-2.71-2.71H45.1V13.92h3a1.29,1.29,0,0,0,0-2.58H40.84V8.25h1.55A1.29,1.29,0,0,0,43.68,7V1.29A1.29,1.29,0,0,0,42.39,0H22.55a1.29,1.29,0,0,0-1.29,1.29V7a1.29,1.29,0,0,0,1.29,1.29h1.54v3.09H16.88a1.29,1.29,0,0,0,0,2.58h3V39.68H14.05a2.71,2.71,0,0,0-2.71,2.71v2.83a2.71,2.71,0,0,0,2.71,2.71H17V51H9.79A9.83,9.83,0,0,0,0,60.81V64.6a9.76,9.76,0,0,0,6.7,9.29l.14,0L17,76v3.2a5.55,5.55,0,0,0,5.55,5.54H43.8a5.55,5.55,0,0,0,5.55-5.54ZM17,67.66l-6.11-1.53a3.48,3.48,0,0,1,.84-6.86H17Zm0-11H11.73a6.07,6.07,0,0,0-1.47,11.95L17,70.32v3.07l-9.55-2A7.22,7.22,0,0,1,2.58,64.6V60.81A7.23,7.23,0,0,1,9.79,53.6H17Zm6.84-51V2.58H41.09V5.67ZM38.26,8.25v3.09H26.67V8.25ZM22.42,13.92H42.51V39.68H22.42ZM46.76,79.23a3,3,0,0,1-3,3H22.55a3,3,0,0,1-3-3V67.77H46.76Zm0-14H19.59V47.93h2.16l0,.07,2.45,4.88a1.27,1.27,0,0,0,1.15.72H41a1.29,1.29,0,0,0,1.15-.72l2.47-5h2.16ZM24.64,47.93H41.71L40.17,51h-14l0-.06ZM13.92,45.35V42.26H51v3.09Z"/></g></g></svg>