<svg xmlns="http://www.w3.org/2000/svg" viewBox="0 0 84.38 61.86"><defs><style>.cls-1{fill:#82d1d1;}.cls-1,.cls-2,.cls-3,.cls-4,.cls-5,.cls-6,.cls-7{stroke:#000;stroke-width:2.54px;}.cls-1,.cls-3,.cls-4,.cls-6,.cls-7{stroke-linecap:round;}.cls-1,.cls-2,.cls-5{stroke-miterlimit:10;}.cls-2,.cls-4{fill:#faf8ed;}.cls-3{fill:#f4b962;}.cls-3,.cls-4,.cls-6,.cls-7{stroke-linejoin:round;}.cls-5{fill:red;}.cls-6{fill:#ff0c38;}.cls-7{fill:#40a340;}</style></defs><g id="Layer_2" data-name="Layer 2"><g id="Layer_1-2" data-name="Layer 1"><path class="cls-1" d="M63.7,60.59H4.6a3.33,3.33,0,0,1-3.33-3.33h0A3.33,3.33,0,0,1,4.6,53.93H79.78a3.33,3.33,0,0,1,3.33,3.33h0a3.33,3.33,0,0,1-3.33,3.33H73.14"/><path class="cls-2" d="M12.53,29H72.16a4.92,4.92,0,0,1,4.92,4.92v20a0,0,0,0,1,0,0H7.61a0,0,0,0,1,0,0v-20A4.92,4.92,0,0,1,12.53,29Z"/><path class="cls-3" d="M7.61,36.32V34.59A5.57,5.57,0,0,1,13.18,29H71.29a5.78,5.78,0,0,1,5.79,5.78v1.51h-8a1.35,1.35,0,0,0-1.35,1.35l0,8.64a4.54,4.54,0,0,1-4.54,4.52h0a4.54,4.54,0,0,1-4.54-4.53V37.79a1.47,1.47,0,0,0-1.47-1.47h0a1.47,1.47,0,0,0-1.47,1.47v2.58A4.61,4.61,0,0,1,51,45h0a4.61,4.61,0,0,1-4.61-4.61v-2.7a1.33,1.33,0,0,0-1.33-1.33H13.6"/><path class="cls-4" d="M71.39,26.09A2.94,2.94,0,0,1,68.45,29H45.28a2.94,2.94,0,0,1,0-5.87H50a3,3,0,1,1,0-6h2.69c1-7.86,10.34-8.94,10.34-9.09-1.85,2.88,3.4,9.52,3.68,9.87a3,3,0,0,1-2,5.25h3.72A2.94,2.94,0,0,1,71.39,26.09Z"/><circle class="cls-5" cx="61.06" cy="4.65" r="3.38"/><path class="cls-6" d="M35,19.55a24.76,24.76,0,0,1,1.29,2.76c1.41,3.65.85,5-3.21,6a25.25,25.25,0,0,1-3.76.55l-3.74.27a5.82,5.82,0,0,1-5.53-8.59l2.52-4.62a5.83,5.83,0,0,1,10.09-.24"/><ellipse cx="24.93" cy="24.05" rx="0.75" ry="1.61" transform="translate(-6.31 39.03) rotate(-69.59)"/><ellipse cx="28.32" cy="17.79" rx="0.75" ry="1.61" transform="translate(-0.37 34.98) rotate(-63.07)"/><ellipse cx="26.71" cy="20.96" rx="0.75" ry="1.61" transform="translate(-4.08 35.28) rotate(-63.07)"/><ellipse cx="31.71" cy="21.58" rx="0.75" ry="1.61" transform="translate(-1.89 40.08) rotate(-63.07)"/><ellipse cx="30.04" cy="24.87" rx="0.75" ry="1.61" transform="translate(-5.74 40.39) rotate(-63.07)"/><path class="cls-7" d="M21.11,17.85s-4.61-2.55-1.81-7.2C19.3,10.65,24.24,13.12,21.11,17.85Z"/><path class="cls-7" d="M21.11,17.85s-2.57,4.6-7.2,1.78C13.91,19.63,16.39,14.7,21.11,17.85Z"/><circle cx="12.35" cy="43.88" r="1.25"/><circle cx="22.36" cy="41.19" r="1.25"/><circle cx="20.37" cy="50.07" r="1.25"/><circle cx="29.2" cy="45.61" r="1.25"/><circle cx="37.41" cy="40.84" r="1.25"/><circle cx="42.19" cy="46.86" r="1.25"/><circle cx="35.66" cy="50.83" r="1.25"/><circle cx="50.47" cy="50.83" r="1.25"/><circle cx="73.14" cy="42.62" r="1.25"/><circle cx="69.75" cy="50.83" r="1.25"/></g></g></svg>