<svg xmlns="http://www.w3.org/2000/svg" viewBox="0 0 66 84.64"><defs><style>.cls-1,.cls-4,.cls-7{fill:none;}.cls-1,.cls-4,.cls-6,.cls-7,.cls-8,.cls-9{stroke:#000;stroke-width:2.5px;}.cls-1,.cls-4,.cls-6{stroke-linecap:round;}.cls-1,.cls-7,.cls-9{stroke-miterlimit:10;}.cls-2,.cls-6,.cls-8{fill:#ff9017;}.cls-3,.cls-9{fill:#efe23a;}.cls-4,.cls-6,.cls-8{stroke-linejoin:round;}.cls-5{fill:#82d1d1;}</style></defs><g id="Layer_2" data-name="Layer 2"><g id="Layer_1-2" data-name="Layer 1"><line class="cls-1" x1="21.16" y1="1.25" x2="44.56" y2="1.25"/><path class="cls-2" d="M32.91,10.4h0c-4.41,0-7.22-3.65-8-8V1.25h16V2.43C40.41,7.1,37.31,10.4,32.91,10.4Z"/><path class="cls-1" d="M32.91,10.4h0c-4.41,0-7.22-3.65-8-8V1.25h16V2.43C40.41,7.1,37.31,10.4,32.91,10.4Z"/><rect class="cls-3" x="30.29" y="10.4" width="5.38" height="9.36"/><polyline class="cls-4" points="30.29 10.4 35.67 10.4 35.67 19.77 30.29 19.77 30.29 16.37"/><line class="cls-1" x1="17.9" y1="19.77" x2="47.77" y2="19.77"/><path class="cls-5" d="M44,19.77,41.21,24.7a5.49,5.49,0,0,1-4.77,2.78H29.25a5.48,5.48,0,0,1-4.88-3l-2.43-4.73Z"/><path class="cls-1" d="M36.44,27.48H29.25a5.48,5.48,0,0,1-4.88-3l-2.43-4.73H44L41.21,24.7A5.49,5.49,0,0,1,36.44,27.48Z"/><rect class="cls-3" x="30.29" y="27.48" width="5.38" height="9.41"/><rect class="cls-4" x="30.29" y="27.48" width="5.38" height="9.41"/><line class="cls-1" x1="25.97" y1="36.89" x2="40.13" y2="36.89"/><rect class="cls-6" x="27.53" y="36.89" width="10.76" height="5.46"/><path class="cls-2" d="M41.74,78h9.42a2.69,2.69,0,1,1,0,5.38H14.08a2.69,2.69,0,0,1,0-5.38H41.74Z"/><path class="cls-6" d="M37,83.39H14.08a2.69,2.69,0,0,1,0-5.38h10"/><path class="cls-6" d="M41.74,78h9.42a2.69,2.69,0,1,1,0,5.38H47.77"/><path class="cls-3" d="M48.85,64.78A15.84,15.84,0,0,1,41.74,78H24.11a15.79,15.79,0,0,1-7-13,14.8,14.8,0,0,1,.07-1.77c0-.34.07-.67.13-1,0-.17,0-.33.08-.49s.05-.23.08-.34a14.91,14.91,0,0,1,.94-3c.06-.14.12-.28.19-.42s.14-.3.22-.45.14-.28.22-.41a15.81,15.81,0,0,1,1.61-2.41c.1-.13.21-.25.31-.37l.32-.36.2-.21c.15-.16.31-.32.47-.47a3.61,3.61,0,0,1,.35-.33l.28-.25.24-.21.25-.2a14.22,14.22,0,0,1,1.18-.86l.07-.05a3.63,3.63,0,0,0,1.27-1.69l0-.08h0l0-.07,1.94-7.27H38.28l1.93,7.16s0,0,0,0v0l0,.08a3.6,3.6,0,0,0,1.44,1.84c.41.27.8.56,1.18.85l.68.59.29.26a15.71,15.71,0,0,1,2,2.25c.1.13.19.26.28.4l.21.31q.3.46.57,1l.23.43c.17.34.33.68.48,1l.13.3c.11.3.22.6.32.9l.09.26c0,.08,0,.16.07.24s0,.12,0,.17.1.36.14.55.11.47.16.71A16.2,16.2,0,0,1,48.85,64.78Z"/><path class="cls-4" d="M48.85,64.78A15.84,15.84,0,0,1,41.74,78H24.11a15.79,15.79,0,0,1-7-13,14.8,14.8,0,0,1,.07-1.77c0-.34.07-.67.13-1,0-.17,0-.33.08-.49s.05-.23.08-.34a14.91,14.91,0,0,1,.94-3c.06-.14.12-.28.19-.42s.14-.3.22-.45.14-.28.22-.41a15.81,15.81,0,0,1,1.61-2.41c.1-.13.21-.25.31-.37l.32-.36.2-.21c.15-.16.31-.32.47-.47a3.61,3.61,0,0,1,.35-.33l.28-.25.24-.21.25-.2a14.22,14.22,0,0,1,1.18-.86l.07-.05a3.41,3.41,0,0,0,1.27-1.69l0-.08h0l2-7.34H38.28l1.94,7.2v0l0,.08a3.39,3.39,0,0,0,1.38,1.8l.06,0c.41.27.8.56,1.18.85l.68.59.29.26a15.71,15.71,0,0,1,2,2.25c.1.13.19.26.28.4l.21.31q.3.46.57,1l.23.43c.17.34.33.68.48,1l.13.3c.11.3.22.6.32.9l.09.26c0,.08,0,.16.07.24s0,.12,0,.17.1.36.14.55.11.47.16.71A16.2,16.2,0,0,1,48.85,64.78Z"/><ellipse class="cls-2" cx="33" cy="57.54" rx="1.98" ry="4.43"/><path class="cls-7" d="M26.47,48.15l6.78,4.69A5.39,5.39,0,0,1,33.42,62a1,1,0,0,1-1.24-.06c-1-.85-2.74-3.57-1.77-6.21a5.18,5.18,0,0,1,2.17-2.61c2.27-1.56,6.73-4.75,6.73-4.75"/><circle cx="24.82" cy="60.98" r="1.65"/><circle cx="40.96" cy="60.98" r="1.65"/><path class="cls-5" d="M18.71,69.38s2.26-4.49,4.86,0,4.95,1.13,5.42,0,3.26-3.64,5.28.18,4.82,1.74,5.34-.09,3.6-3.2,5.33.1a26.72,26.72,0,0,0,1.84,2.14l.37.28s-3,5-5.41,6.07H24.11S19.47,74.9,18,70.13A4.24,4.24,0,0,0,18.71,69.38Z"/><path class="cls-4" d="M18.71,69.38s2.26-4.49,4.86,0,4.95,1.13,5.42,0,3.26-3.64,5.28.18,4.82,1.74,5.34-.09,3.6-3.2,5.33.1a26.72,26.72,0,0,0,1.84,2.14l.37.28s-3,5-5.41,6.07H24.11S19.47,74.9,18,70.13A4.24,4.24,0,0,0,18.71,69.38Z"/><path class="cls-4" d="M16.21,63.53H11a9.74,9.74,0,0,1-9.71-9.72V52A9.74,9.74,0,0,1,11,42.26h12.2"/><line class="cls-4" x1="61.92" y1="10.78" x2="61.92" y2="3.56"/><path class="cls-4" d="M44,42.26s17.26,1.49,17.9-14.11v-3"/><line class="cls-4" x1="61.92" y1="19.88" x2="61.92" y2="15.97"/><polygon class="cls-8" points="64.75 15.97 59.28 15.97 59.8 10.78 64.26 10.78 64.75 15.97"/><path class="cls-9" d="M64.75,22.53a2.65,2.65,0,0,1-2.65,2.65h-.18a2.65,2.65,0,0,1,0-5.29h.18A2.66,2.66,0,0,1,64.75,22.53Z"/><line class="cls-1" x1="59.28" y1="28.15" x2="64.75" y2="28.15"/></g></g></svg>