<svg xmlns="http://www.w3.org/2000/svg" viewBox="0 0 64.47 84.16"><defs><style>.cls-1{fill:#faf8ed;}.cls-1,.cls-3,.cls-4,.cls-5,.cls-6,.cls-7{stroke:#000;stroke-linecap:round;stroke-width:2.5px;}.cls-1,.cls-4,.cls-6{stroke-linejoin:round;}.cls-2,.cls-3,.cls-4{fill:#e26e86;}.cls-3,.cls-5,.cls-7{stroke-miterlimit:10;}.cls-5{fill:#c00;}.cls-6,.cls-7{fill:none;}</style></defs><g id="Layer_2" data-name="Layer 2"><g id="Layer_1-2" data-name="Layer 1"><path class="cls-1" d="M56.83,72.35A10.55,10.55,0,0,1,46.28,82.91H25A10.55,10.55,0,0,1,14.44,72.35V31H56.83V64.44"/><path class="cls-2" d="M25.75,24.54H45.33a5,5,0,0,1,5,5V72.07a4.75,4.75,0,0,1-4.75,4.75H25.08a4.75,4.75,0,0,1-4.75-4.75V30A5.42,5.42,0,0,1,25.75,24.54Z"/><path class="cls-3" d="M29.06,24.54H45.33a5,5,0,0,1,5,5V72.07a4.75,4.75,0,0,1-4.75,4.75H25.08a4.75,4.75,0,0,1-4.75-4.75V30a5.37,5.37,0,0,1,1.21-3.41"/><path class="cls-2" d="M31.35,17.44H39A6.58,6.58,0,0,1,45.62,24v0a.51.51,0,0,1-.51.51H25.28a.51.51,0,0,1-.51-.51v0A6.58,6.58,0,0,1,31.35,17.44Z"/><path class="cls-3" d="M27.58,18.63a6.55,6.55,0,0,1,3.77-1.19H39A6.59,6.59,0,0,1,45.62,24h0a.51.51,0,0,1-.52.51H28.69"/><path class="cls-2" d="M30,17.58s5.18-4.33,6.83-9.06a.88.88,0,0,1,1.49-.29c1.85,2.1,5.3,6.63,4.45,10.4C42.93,18.65,41.46,16.77,30,17.58Z"/><path class="cls-4" d="M42.61,15.29a6.8,6.8,0,0,1,.19,3.34c.13,0-1.34-1.86-12.77-1.05,0,0,5.18-4.33,6.83-9.06a.88.88,0,0,1,1.49-.29c.29.33.61.71,1,1.15"/><path class="cls-5" d="M25.7,27.63c-2.82-1.11-10.22-4.59-7.31-9.34a5.74,5.74,0,0,1,3.31-2.5c5.86-1.7,6.27,7.54,5.46,11.08A1.08,1.08,0,0,1,25.7,27.63Z"/><polyline class="cls-6" points="14.63 15.59 20.31 16.4 22.6 11.15"/><line class="cls-6" x1="16.41" y1="9.38" x2="20.31" y2="16.4"/><polyline class="cls-6" points="63.22 1.25 53.68 6.75 49.65 27.04"/><path class="cls-1" d="M5.83,35.47a4.58,4.58,0,0,0-4.58,4.58V61.32A4.58,4.58,0,0,0,5.83,65.9h8.61V35.47ZM14.4,60.53H8.46a2.21,2.21,0,0,1-2.2-2.2V43.05a2.2,2.2,0,0,1,2.2-2.2H14.4Z"/><circle cx="28.63" cy="35.72" r="1.71"/><circle cx="35.81" cy="41.15" r="1.71"/><circle cx="41.49" cy="35.35" r="1.71"/><circle cx="44.91" cy="46.41" r="1.71"/><circle cx="36.9" cy="51.79" r="1.71"/><circle cx="26.48" cy="47.51" r="1.71"/><circle cx="28.43" cy="57.35" r="1.71"/><circle cx="34.05" cy="65.23" r="1.71"/><circle cx="43.2" cy="60.53" r="1.71"/><circle cx="43.93" cy="70.24" r="1.71"/><circle cx="26.92" cy="71.22" r="1.71"/><line class="cls-7" x1="20.01" y1="31" x2="43.93" y2="31"/></g></g></svg>